<?xml version="1.0" standalone="no"?><!DOCTYPE svg PUBLIC "-//W3C//DTD SVG 1.1//EN" "http://www.w3.org/Graphics/SVG/1.1/DTD/svg11.dtd"><svg t="1766544891616" class="icon" viewBox="0 0 1024 1024" version="1.1" xmlns="http://www.w3.org/2000/svg" p-id="27360" xmlns:xlink="http://www.w3.org/1999/xlink" width="200" height="200"><path d="M0 0m184.32 0l655.36 0q184.32 0 184.32 184.32l0 655.36q0 184.32-184.32 184.32l-655.36 0q-184.32 0-184.32-184.32l0-655.36q0-184.32 184.32-184.32Z" fill="#72DB86" p-id="27361"></path><path d="M421.70368 1024h371.17952c127.50848 0 230.85056-103.36256 230.85056-230.87104V441.20064l-256.512-177.50016-276.52096 42.57792-121.83552-62.34112-57.71264 8.21248-116.71552 102.6048 81.3056 197.77536-88.22784 207.01184L421.6832 1024z" fill="#52C181" p-id="27362"></path><path d="M791.08096 392.192l-76.94336 30.53568c-31.35488 12.45184-64.77824 18.88256-98.5088 18.98496h-135.70048l-1.78176 14.62272a179.56864 179.56864 0 0 0 17.69472 103.89504l111.8208 223.41632h187.02336a40.01792 40.01792 0 0 0 39.75168-44.89216l-43.35616-346.54208zM781.33248 314.22464l-3.33824-27.70944a40.01792 40.01792 0 0 0-39.7312-34.87744h-199.33184a40.01792 40.01792 0 0 0-39.75168 34.87744l-8.47872 79.01184h120.56576c28.30336 0 56.32-5.38624 82.59584-15.89248l87.47008-35.40992zM204.6976 555.6224L182.8864 723.59936a53.10464 53.10464 0 0 0 52.8384 60.02688h286.80192l-113.90976-228.0448H204.6976zM318.07488 506.34752c-78.848-63.61088-118.25152-116.79744-118.25152-159.5392a118.25152 118.25152 0 1 1 236.50304 0c0 42.74176-39.424 95.92832-118.25152 159.5392z m2.048-118.25152a39.50592 39.50592 0 1 0-1.024-78.99136 39.50592 39.50592 0 0 0 1.024 78.99136z" fill="#FFFFFF" p-id="27363"></path></svg>