<?xml version="1.0" standalone="no"?><!DOCTYPE svg PUBLIC "-//W3C//DTD SVG 1.1//EN" "http://www.w3.org/Graphics/SVG/1.1/DTD/svg11.dtd"><svg t="1766544951048" class="icon" viewBox="0 0 1024 1024" version="1.1" xmlns="http://www.w3.org/2000/svg" p-id="31653" xmlns:xlink="http://www.w3.org/1999/xlink" width="200" height="200"><path d="M640 85.333333a298.666667 298.666667 0 0 1 298.666667 298.666667v256a298.666667 298.666667 0 0 1-298.666667 298.666667H384a298.666667 298.666667 0 0 1-298.666667-298.666667V384a298.666667 298.666667 0 0 1 298.666667-298.666667h256zM384 298.666667H341.333333a42.666667 42.666667 0 0 0-42.666666 42.666666v128a42.666667 42.666667 0 0 0 42.666666 42.666667h42.666667a42.666667 42.666667 0 0 0 42.666667-42.666667V341.333333a42.666667 42.666667 0 0 0-42.666667-42.666666z m298.666667 0h-42.666667a42.666667 42.666667 0 0 0-42.666667 42.666666v128a42.666667 42.666667 0 0 0 42.666667 42.666667h42.666667a42.666667 42.666667 0 0 0 42.666666-42.666667V341.333333a42.666667 42.666667 0 0 0-42.666666-42.666666z" fill="#FEA60F" p-id="31654"></path><path d="M0 0h1024v1024H0z" fill="#FFFFFF" fill-opacity=".01" p-id="31655"></path></svg>