<?xml version="1.0" standalone="no"?><!DOCTYPE svg PUBLIC "-//W3C//DTD SVG 1.1//EN" "http://www.w3.org/Graphics/SVG/1.1/DTD/svg11.dtd"><svg t="1766544775147" class="icon" viewBox="0 0 1024 1024" version="1.1" xmlns="http://www.w3.org/2000/svg" p-id="16857" xmlns:xlink="http://www.w3.org/1999/xlink" width="200" height="200"><path d="M512 864a32 32 0 0 1-32-32v-96a32 32 0 1 1 64 0v96a32 32 0 0 1-32 32z" fill="#548AFF" p-id="16858"></path><path d="M896 160H128a32 32 0 0 0-32 32v512a32 32 0 0 0 32 32h768a32 32 0 0 0 32-32V192a32 32 0 0 0-32-32z" fill="#548AFF" p-id="16859"></path><path d="M960 32H64a32 32 0 0 0-32 32v128a32 32 0 0 0 32 32h896a32 32 0 0 0 32-32V64a32 32 0 0 0-32-32zM512 992a96 96 0 1 0 0-192 96 96 0 0 0 0 192zM960 736H64a32 32 0 0 1 0-64h896a32 32 0 0 1 0 64zM512 608H256a32 32 0 0 1 0-64h256a32 32 0 0 1 0 64zM640 480H256a32 32 0 0 1 0-64h384a32 32 0 0 1 0 64zM768 352H256a32 32 0 0 1 0-64h512a32 32 0 0 1 0 64z" fill="#FFC431" p-id="16860"></path></svg>