<?xml version="1.0" standalone="no"?><!DOCTYPE svg PUBLIC "-//W3C//DTD SVG 1.1//EN" "http://www.w3.org/Graphics/SVG/1.1/DTD/svg11.dtd"><svg t="1766540919763" class="icon" viewBox="0 0 1024 1024" version="1.1" xmlns="http://www.w3.org/2000/svg" p-id="8122" xmlns:xlink="http://www.w3.org/1999/xlink" width="200" height="200"><path d="M669.8 136.4H358.1c-47 0-85 38.7-85 86.4v576.6c0 47.8 38 86.4 85 86.4h311.8c47 0 85-38.7 85-86.4V222.8c0-47.6-38.1-86.4-85.1-86.4z m-184.1 28.8h56.7c7.8 0 14.1 6.5 14.1 14.4s-6.4 14.4-14.1 14.4h-56.7c-7.8 0-14.2-6.5-14.2-14.4s6.4-14.4 14.2-14.4z m28.2 685.5c-20 0-36.2-16.5-36.2-36.9s16.2-36.9 36.2-36.9c20 0 36.2 16.5 36.2 36.9 0.1 20.4-16 36.9-36.2 36.9z m184.4-123.3c0 7.9-6.4 14.4-14.1 14.4H344c-7.8 0-14.1-6.5-14.1-14.4v-490c0-7.9 6.4-14.4 14.1-14.4h340.1c7.8 0 14.1 6.5 14.1 14.4v490z m0 0" fill="" p-id="8123"></path></svg>